Crispy Narrow Black-MaxGrade.ufo
<glyph name="ampersand" format="2">
  <advance width="1073"/>
  <unicode hex="0026"/>
  <outline>
    <contour>
      <point x="-130" y="769" type="line"/>
      <point x="-130" y="0" type="line"/>
      <point x="583" y="0" type="line"/>
      <point x="663" y="532" type="line"/>
      <point x="634" y="532" type="line"/>
      <point x="762" y="-43" type="line"/>
      <point x="1054" y="7" type="line"/>
      <point x="908" y="675" type="line"/>
      <point x="422" y="675" type="line"/>
      <point x="349" y="190" type="line"/>
      <point x="175" y="190" type="line"/>
      <point x="175" y="615" type="line"/>
      <point x="395" y="615" type="line"/>
      <point x="395" y="1167" type="line"/>
      <point x="468" y="1382" type="line"/>
      <point x="496" y="1382" type="line"/>
      <point x="496" y="930" type="line"/>
      <point x="801" y="930" type="line"/>
      <point x="801" y="1600" type="line"/>
      <point x="230" y="1600" type="line"/>
      <point x="90" y="1224" type="line"/>
      <point x="90" y="769" type="line"/>
    </contour>
  </outline>
</glyph>
<glyph name="quotesingle" format="2">
  <advance width="359"/>
  <unicode hex="0027"/>
  <outline>
    <contour>
      <point x="45" y="1074" type="line"/>
      <point x="313" y="1074" type="line"/>
      <point x="332" y="1600" type="line"/>
      <point x="26" y="1600" type="line"/>
    </contour>
  </outline>
</glyph>
<glyph name="asterisk" format="2">
  <advance width="284"/>
  <unicode hex="002A"/>
  <outline>
    <contour>
      <point x="86" y="1387" type="line"/>
      <point x="142" y="1464" type="line"/>
      <point x="198" y="1386" type="line"/>
      <point x="254" y="1429" type="line"/>
      <point x="167" y="1484" type="line"/>
      <point x="273" y="1503" type="line"/>
      <point x="260" y="1541" type="line"/>
      <point x="162" y="1514" type="line"/>
      <point x="185" y="1601" type="line"/>
      <point x="100" y="1601" type="line"/>
      <point x="122" y="1514" type="line"/>
      <point x="24" y="1541" type="line"/>
      <point x="11" y="1504" type="line"/>
      <point x="118" y="1484" type="line"/>
      <point x="30" y="1426" type="line"/>
    </contour>
  </outline>
</glyph>
<glyph name="three" format="2">
  <advance width="779"/>
  <unicode hex="0033"/>
  <outline>
    <contour>
      <point x="27" y="0" type="line"/>
      <point x="748" y="0" type="line"/>
      <point x="748" y="910" type="line"/>
      <point x="612" y="910" type="line"/>
      <point x="741" y="1143" type="line"/>
      <point x="741" y="1600" type="line"/>
      <point x="34" y="1600" type="line"/>
      <point x="34" y="1082" type="line"/>
      <point x="363" y="1082" type="line"/>
      <point x="363" y="1382" type="line"/>
      <point x="411" y="1382" type="line"/>
      <point x="411" y="1119" type="line"/>
      <point x="306" y="910" type="line"/>
      <point x="185" y="910" type="line"/>
      <point x="185" y="692" type="line"/>
      <point x="418" y="692" type="line"/>
      <point x="418" y="218" type="line"/>
      <point x="357" y="218" type="line"/>
      <point x="357" y="593" type="line"/>
      <point x="27" y="593" type="line"/>
    </contour>
  </outline>
</glyph>
<glyph name="six" format="2">
  <advance width="778"/>
  <unicode hex="0036"/>
  <outline>
    <contour>
      <point x="26" y="0" type="line"/>
      <point x="752" y="0" type="line"/>
      <point x="752" y="886" type="line"/>
      <point x="355" y="886" type="line"/>
      <point x="355" y="1250" type="line"/>
      <point x="404" y="1382" type="line"/>
      <point x="418" y="1382" type="line"/>
      <point x="418" y="1083" type="line"/>
      <point x="748" y="1083" type="line"/>
      <point x="748" y="1600" type="line"/>
      <point x="149" y="1600" type="line"/>
      <point x="26" y="1261" type="line"/>
    </contour>
    <contour>
      <point x="422" y="668" type="line"/>
      <point x="422" y="218" type="line"/>
      <point x="355" y="218" type="line"/>
      <point x="355" y="668" type="line"/>
    </contour>
  </outline>
</glyph>
<glyph name="eight" format="2">
  <advance width="775"/>
  <unicode hex="0038"/>
  <outline>
    <contour>
      <point x="22" y="0" type="line"/>
      <point x="753" y="0" type="line"/>
      <point x="753" y="678" type="line"/>
      <point x="677" y="795" type="line"/>
      <point x="677" y="804" type="line"/>
      <point x="750" y="804" type="line"/>
      <point x="750" y="1600" type="line"/>
      <point x="25" y="1600" type="line"/>
      <point x="25" y="919" type="line"/>
      <point x="99" y="805" type="line"/>
      <point x="99" y="796" type="line"/>
      <point x="22" y="796" type="line"/>
    </contour>
    <contour>
      <point x="352" y="218" type="line"/>
      <point x="352" y="674" type="line"/>
      <point x="375" y="699" type="line"/>
      <point x="424" y="636" type="line"/>
      <point x="424" y="218" type="line"/>
    </contour>
    <contour>
      <point x="400" y="901" type="line"/>
      <point x="355" y="961" type="line"/>
      <point x="355" y="1382" type="line"/>
      <point x="420" y="1382" type="line"/>
      <point x="420" y="925" type="line"/>
    </contour>
  </outline>
</glyph>
<glyph name="question" format="2">
  <advance width="716"/>
  <unicode hex="003F"/>
  <outline>
    <contour>
      <point x="200" y="499" type="line"/>
      <point x="591" y="499" type="line"/>
      <point x="699" y="741" type="line"/>
      <point x="699" y="1600" type="line"/>
      <point x="23" y="1600" type="line"/>
      <point x="23" y="1001" type="line"/>
      <point x="329" y="1001" type="line"/>
      <point x="329" y="1428" type="line"/>
      <point x="393" y="1428" type="line"/>
      <point x="393" y="739" type="line"/>
      <point x="305" y="585" type="line"/>
      <point x="199" y="585" type="line"/>
    </contour>
    <contour>
      <point x="203" y="0" type="line"/>
      <point x="534" y="0" type="line"/>
      <point x="530" y="257" type="line"/>
      <point x="199" y="257" type="line"/>
    </contour>
  </outline>
</glyph>
<glyph name="A" format="2">
  <advance width="779"/>
  <unicode hex="0041"/>
  <outline>
    <contour>
      <point x="26" y="0" type="line"/>
      <point x="355" y="0" type="line"/>
      <point x="355" y="1252" type="line"/>
      <point x="400" y="1382" type="line"/>
      <point x="424" y="1382" type="line"/>
      <point x="424" y="0" type="line"/>
      <point x="753" y="0" type="line"/>
      <point x="753" y="1600" type="line"/>
      <point x="149" y="1600" type="line"/>
      <point x="26" y="1262" type="line"/>
    </contour>
    <contour>
      <point x="210" y="582" type="line"/>
      <point x="580" y="582" type="line"/>
      <point x="580" y="800" type="line"/>
      <point x="210" y="800" type="line"/>
    </contour>
  </outline>
</glyph>
<glyph name="G" format="2">
  <advance width="785"/>
  <unicode hex="0047"/>
  <outline>
    <contour>
      <point x="26" y="0" type="line"/>
      <point x="758" y="0" type="line"/>
      <point x="758" y="866" type="line"/>
      <point x="387" y="866" type="line"/>
      <point x="387" y="648" type="line"/>
      <point x="428" y="648" type="line"/>
      <point x="428" y="218" type="line"/>
      <point x="355" y="218" type="line"/>
      <point x="355" y="1251" type="line"/>
      <point x="404" y="1382" type="line"/>
      <point x="428" y="1382" type="line"/>
      <point x="428" y="965" type="line"/>
      <point x="758" y="965" type="line"/>
      <point x="758" y="1600" type="line"/>
      <point x="150" y="1600" type="line"/>
      <point x="26" y="1263" type="line"/>
    </contour>
  </outline>
</glyph>
<glyph name="R" format="2">
  <advance width="798"/>
  <unicode hex="0052"/>
  <outline>
    <contour>
      <point x="504" y="-20" type="line"/>
      <point x="787" y="60" type="line"/>
      <point x="647" y="659" type="line"/>
      <point x="371" y="660" type="line"/>
    </contour>
    <contour>
      <point x="29" y="0" type="line"/>
      <point x="359" y="0" type="line"/>
      <point x="359" y="650" type="line"/>
      <point x="756" y="650" type="line"/>
      <point x="756" y="1600" type="line"/>
      <point x="29" y="1600" type="line"/>
    </contour>
    <contour>
      <point x="359" y="868" type="line"/>
      <point x="359" y="1382" type="line"/>
      <point x="427" y="1382" type="line"/>
      <point x="427" y="868" type="line"/>
    </contour>
  </outline>
</glyph>
<glyph name="S" format="2">
  <advance width="768"/>
  <unicode hex="0053"/>
  <outline>
    <contour>
      <point x="24" y="0" type="line"/>
      <point x="623" y="0" type="line"/>
      <point x="746" y="326" type="line"/>
      <point x="746" y="916" type="line"/>
      <point x="349" y="916" type="line"/>
      <point x="349" y="1242" type="line"/>
      <point x="400" y="1394" type="line"/>
      <point x="403" y="1394" type="line"/>
      <point x="403" y="1059" type="line"/>
      <point x="733" y="1059" type="line"/>
      <point x="733" y="1600" type="line"/>
      <point x="146" y="1600" type="line"/>
      <point x="23" y="1254" type="line"/>
      <point x="23" y="686" type="line"/>
      <point x="416" y="686" type="line"/>
      <point x="416" y="336" type="line"/>
      <point x="364" y="210" type="line"/>
      <point x="352" y="210" type="line"/>
      <point x="352" y="551" type="line"/>
      <point x="24" y="551" type="line"/>
    </contour>
  </outline>
</glyph>
<glyph name="X" format="2">
  <advance width="694"/>
  <unicode hex="0058"/>
  <outline>
    <contour>
      <point x="536" y="0" type="line"/>
      <point x="728" y="0" type="line"/>
      <point x="728" y="192" type="line"/>
      <point x="538" y="192" type="line"/>
      <point x="193" y="1600" type="line"/>
      <point x="8" y="1600" type="line"/>
      <point x="8" y="1410" type="line"/>
      <point x="191" y="1410" type="line"/>
    </contour>
    <contour>
      <point x="54" y="374" type="line"/>
      <point x="333" y="374" type="line"/>
      <point x="396" y="1170" type="line"/>
      <point x="126" y="1175" type="line"/>
    </contour>
    <contour>
      <point x="332" y="427" type="line"/>
      <point x="601" y="426" type="line"/>
      <point x="672" y="1228" type="line"/>
      <point x="393" y="1228" type="line"/>
    </contour>
  </outline>
</glyph>
<glyph name="d" format="2">
  <advance width="670"/>
  <unicode hex="0064"/>
  <outline>
    <contour>
      <point x="22" y="0" type="line"/>
      <point x="575" y="0" type="line"/>
      <point x="647" y="163" type="line"/>
      <point x="647" y="1700" type="line"/>
      <point x="368" y="1700" type="line"/>
      <point x="368" y="1294" type="line"/>
      <point x="94" y="1294" type="line"/>
      <point x="22" y="1132" type="line"/>
    </contour>
    <contour>
      <point x="301" y="190" type="line"/>
      <point x="301" y="943" type="line"/>
      <point x="358" y="1104" type="line"/>
      <point x="368" y="1104" type="line"/>
      <point x="368" y="351" type="line"/>
      <point x="312" y="190" type="line"/>
    </contour>
  </outline>
</glyph>
<glyph name="n" format="2">
  <advance width="675"/>
  <unicode hex="006E"/>
  <outline>
    <contour>
      <point x="21" y="0" type="line"/>
      <point x="300" y="0" type="line"/>
      <point x="300" y="944" type="line"/>
      <point x="357" y="1105" type="line"/>
      <point x="368" y="1105" type="line"/>
      <point x="368" y="0" type="line"/>
      <point x="647" y="0" type="line"/>
      <point x="647" y="1293" type="line"/>
      <point x="95" y="1293" type="line"/>
      <point x="21" y="1131" type="line"/>
    </contour>
  </outline>
</glyph>
<glyph name="y" format="2">
  <advance width="669"/>
  <unicode hex="0079"/>
  <outline>
    <contour>
      <point x="28" y="0" type="line"/>
      <point x="350" y="0" type="line"/>
      <point x="342" y="-295" type="line"/>
      <point x="619" y="-309" type="line"/>
      <point x="663" y="1200" type="line"/>
      <point x="384" y="1200" type="line"/>
      <point x="355" y="190" type="line"/>
      <point x="307" y="190" type="line"/>
      <point x="307" y="1200" type="line"/>
      <point x="28" y="1200" type="line"/>
    </contour>
  </outline>
</glyph>
<glyph name="braceleft" format="2">
  <advance width="453"/>
  <unicode hex="007B"/>
  <outline>
    <contour>
      <point x="374" y="881" type="line"/>
      <point x="374" y="1474" type="line"/>
      <point x="453" y="1474" type="line"/>
      <point x="453" y="1692" type="line"/>
      <point x="68" y="1692" type="line"/>
      <point x="68" y="882" type="line"/>
      <point x="-1" y="801" type="line"/>
      <point x="-1" y="799" type="line"/>
      <point x="68" y="718" type="line"/>
      <point x="68" y="-92" type="line"/>
      <point x="448" y="-92" type="line"/>
      <point x="448" y="126" type="line"/>
      <point x="374" y="126" type="line"/>
      <point x="374" y="719" type="line"/>
      <point x="305" y="799" type="line"/>
      <point x="305" y="801" type="line"/>
    </contour>
  </outline>
</glyph>
<glyph name="Eth" format="2">
  <advance width="785"/>
  <unicode hex="00D0"/>
  <outline>
    <contour>
      <point x="-64" y="716" type="line"/>
      <point x="243" y="716" type="line"/>
      <point x="243" y="906" type="line"/>
      <point x="-64" y="906" type="line"/>
    </contour>
    <component base="D"/>
  </outline>
</glyph>
<glyph name="product" format="2">
  <advance width="814"/>
  <unicode hex="220F"/>
  <outline>
    <contour>
      <point x="35" y="-170" type="line"/>
      <point x="365" y="-170" type="line"/>
      <point x="365" y="1381" type="line"/>
      <point x="449" y="1381" type="line"/>
      <point x="449" y="-170" type="line"/>
      <point x="779" y="-170" type="line"/>
      <point x="779" y="1600" type="line"/>
      <point x="35" y="1600" type="line"/>
    </contour>
  </outline>
</glyph>
<glyph name="summation" format="2">
  <advance width="741"/>
  <unicode hex="2211"/>
  <outline>
    <contour>
      <point x="17" y="-400" type="line"/>
      <point x="713" y="-400" type="line"/>
      <point x="713" y="149" type="line"/>
      <point x="408" y="149" type="line"/>
      <point x="408" y="-182" type="line"/>
      <point x="352" y="-182" type="line"/>
      <point x="426" y="599" type="line"/>
      <point x="426" y="601" type="line"/>
      <point x="352" y="1382" type="line"/>
      <point x="411" y="1382" type="line"/>
      <point x="411" y="1015" type="line"/>
      <point x="716" y="1015" type="line"/>
      <point x="716" y="1600" type="line"/>
      <point x="17" y="1600" type="line"/>
      <point x="109" y="600" type="line"/>
    </contour>
  </outline>
</glyph>
<glyph name="E.wide" format="2">
  <advance width="575"/>
  <outline>
    <contour>
      <point x="38" y="0" type="line"/>
      <point x="512" y="0" type="line"/>
      <point x="512" y="218" type="line"/>
      <point x="367" y="218" type="line"/>
      <point x="367" y="691" type="line"/>
      <point x="476" y="691" type="line"/>
      <point x="476" y="909" type="line"/>
      <point x="367" y="909" type="line"/>
      <point x="367" y="1382" type="line"/>
      <point x="511" y="1382" type="line"/>
      <point x="511" y="1600" type="line"/>
      <point x="38" y="1600" type="line"/>
    </contour>
  </outline>
</glyph>
